<svg width="24" height="24" viewBox="0 0 24 24" fill="none" xmlns="http://www.w3.org/2000/svg">
<path d="M8.07005 12.543L16.4296 20.508C16.569 20.641 16.7543 20.7151 16.9471 20.7151C17.1398 20.7151 17.3251 20.641 17.4646 20.508L17.4736 20.499C17.5414 20.4345 17.5954 20.3569 17.6324 20.2709C17.6693 20.1849 17.6883 20.0923 17.6883 19.9987C17.6883 19.9052 17.6693 19.8125 17.6324 19.7265C17.5954 19.6405 17.5414 19.563 17.4736 19.4985L9.60155 11.9985L17.4736 4.5015C17.5414 4.43704 17.5954 4.35945 17.6324 4.27345C17.6693 4.18745 17.6883 4.09484 17.6883 4.00125C17.6883 3.90766 17.6693 3.81505 17.6324 3.72905C17.5954 3.64305 17.5414 3.56546 17.4736 3.501L17.4646 3.492C17.3251 3.35903 17.1398 3.28485 16.9471 3.28485C16.7543 3.28485 16.569 3.35903 16.4296 3.492L8.07005 11.457C7.99653 11.527 7.93801 11.6113 7.89801 11.7046C7.85802 11.798 7.8374 11.8985 7.8374 12C7.8374 12.1015 7.85802 12.202 7.89801 12.2954C7.93801 12.3887 7.99653 12.473 8.07005 12.543Z" fill="white"/>
</svg>
