<svg width="324" height="87" viewBox="0 0 324 87" fill="none" xmlns="http://www.w3.org/2000/svg">
<path d="M0 43.5V87H54.675H109.35V43.5V0H54.675H0V43.5ZM102.87 43.5V80.4953H54.675H6.48V43.5V6.50468H54.675H102.87V43.5Z" fill="white"/>
<path d="M54.675 16.1804C49.653 18.5383 44.145 23.742 41.796 28.3766C40.5 30.8972 40.419 30.8972 37.989 29.6776C34.587 27.8888 28.269 27.2383 24.867 28.3766C18.954 30.328 14.661 38.0523 15.876 44.557C16.686 48.8663 21.465 53.4196 25.758 54.1514C28.917 54.6392 29.16 54.8832 29.16 57.4037C29.16 65.2093 34.263 69.5187 47.628 72.771C52.326 73.9093 53.703 73.9906 54.675 73.1776C56.295 71.7953 56.214 69.9252 54.351 67.9738C53.46 66.9981 51.84 63.8271 50.706 60.7374L48.681 55.2897H56.943C63.504 55.2897 66.987 55.7776 74.115 57.6476C85.455 60.7374 90.801 61.4691 93.069 60.2495C95.499 58.8673 95.175 56.7533 91.854 52.4439L89.019 48.6224L90.396 44.557C92.097 39.3533 91.53 34.8813 88.371 28.6205C85.455 22.7663 79.137 16.9121 73.953 15.1233C67.797 13.0093 60.426 13.4159 54.675 16.1804ZM73.305 21.8719C75.087 22.685 77.76 24.7177 79.218 26.4252C82.134 29.6776 84.807 34.6374 84.078 35.3691C83.835 35.6131 79.542 35.4504 74.52 34.9626C65.934 34.0682 53.622 34.7187 47.304 36.2635C44.874 36.914 44.874 36.6701 47.304 31.7916C49.491 27.5635 53.946 23.1729 57.834 21.4654C61.479 19.9205 69.417 20.0832 73.305 21.8719ZM34.83 35.4504C37.665 36.5888 38.07 37.0766 38.07 39.4346C38.07 43.9878 39.447 44.3944 48.843 42.6056C57.51 41.0607 71.037 40.6542 78.651 41.7112L83.187 42.3617L83.106 47.8906L83.025 53.4196L74.115 51.0617C69.255 49.7607 64.152 48.1346 62.937 47.4841C60.588 46.1832 56.7 46.5084 56.7 47.9719C56.7 48.4598 54.351 48.785 51.435 48.785C47.304 48.785 45.846 49.1103 44.55 50.4112C42.12 52.8504 41.877 55.371 43.74 60.0869C44.631 62.5261 45.279 64.6402 45.036 64.8028C44.307 65.5346 39.123 63.3392 37.422 61.5504C34.587 58.542 34.668 53.257 37.584 52.5252C39.771 51.9561 40.743 50.086 40.095 47.8906C39.366 45.7766 37.098 45.3701 33.777 46.7523C29.403 48.5411 26.163 48.2972 23.895 45.9392C21.546 43.6626 21.384 41.5486 23.085 38.2149C25.272 33.9869 28.917 33.0925 34.83 35.4504Z" fill="white"/>
<path d="M25.92 37.8084C23.814 40.4103 26.973 44.3944 29.808 42.6056C32.562 40.8168 31.59 36.5888 28.35 36.5888C27.54 36.5888 26.487 37.158 25.92 37.8084Z" fill="white"/>
<path d="M122.31 43.9066V65.8599H129.195H136.08V58.8673V51.9561L138.267 52.2001C139.968 52.3627 141.264 53.7449 144.504 59.1113L148.635 65.8599H156.168H163.782L161.919 62.7701C160.866 61.144 158.679 57.5664 156.978 54.8832L153.981 50.0047L156.33 48.1346C165.402 41.0608 162.405 26.5066 151.227 23.1729C148.392 22.3599 143.451 21.9533 134.703 21.9533H122.31V43.9066ZM147.42 35.7758C148.068 36.9141 148.068 37.8898 147.42 39.0281C146.691 40.4103 145.719 40.6543 141.345 40.6543H136.08V37.4019V34.1496H141.345C145.719 34.1496 146.691 34.3935 147.42 35.7758Z" fill="white"/>
<path d="M205.902 37.1579C206.145 50.0859 206.388 52.8504 207.684 55.2897C211.248 62.1196 216.999 65.8598 224.937 66.5102C234.657 67.242 242.433 63.3392 245.916 55.8588C247.698 51.8747 247.86 50.7364 247.86 36.7513V21.9532H240.975H234.09V35.6943C234.09 51.4682 233.685 52.6065 227.934 53.4196C225.261 53.7448 224.289 53.5009 222.264 51.7934L219.915 49.7607L219.672 35.857L219.429 21.9532H212.463H205.578L205.902 37.1579Z" fill="white"/>
<path d="M264.06 34.0682C254.988 36.0196 250.857 42.6869 255.231 48.2972C257.499 51.2243 260.091 52.4439 267.543 54.0701C274.428 55.6149 275.481 57.1598 269.892 57.5663C267.3 57.729 266.247 57.4037 265.113 56.1841C263.979 54.7205 262.764 54.4766 258.147 54.4766H252.558L253.044 57.0785C253.692 60.5748 258.147 64.7215 262.521 65.8598C267.219 67.1607 275.886 66.5103 279.774 64.6402C288.441 60.4934 287.388 50.5738 277.992 47.9719C276.372 47.5654 272.97 46.671 270.54 46.1832C267.543 45.4514 266.085 44.7196 266.085 43.9065C266.085 42.2804 270.945 42.5243 272.889 44.2318C273.942 45.2075 275.967 45.5327 280.179 45.5327C285.282 45.5327 286.011 45.3701 285.606 44.2318C285.363 43.5 285.12 42.6869 285.12 42.2804C285.12 40.8981 280.665 36.3448 278.235 35.3691C274.995 33.9869 267.624 33.3364 264.06 34.0682Z" fill="white"/>
<path d="M174.96 35.9382C169.452 38.784 166.617 42.9307 166.212 48.7036C165.726 54.9644 167.022 58.6233 170.91 62.0382C177.309 67.8924 188.811 67.9737 195.21 62.1195C196.911 60.5747 198.45 58.5419 198.693 57.5662C199.179 55.8588 199.098 55.8588 189.783 56.4279C181.683 56.8345 180.144 56.7532 178.848 55.6148C178.038 54.8018 177.39 53.9074 177.39 53.5008C177.39 53.1756 182.493 52.8504 188.73 52.8504H200.07V50.5737C200.07 46.8335 198.531 42.4429 196.263 39.7597C191.565 34.1494 181.845 32.4419 174.96 35.9382ZM186.138 44.3943C189.054 46.427 188.163 47.1588 182.655 47.1588C179.739 47.1588 177.39 46.8335 177.39 46.427C177.39 45.2074 180.792 43.0933 182.655 43.0933C183.546 43.0933 185.166 43.6625 186.138 44.3943Z" fill="white"/>
<path d="M299.295 35.6944C293.382 38.4589 289.98 43.9879 289.98 50.8178C289.98 58.5421 294.678 64.1523 302.454 65.9411C309.339 67.486 315.252 65.9411 319.788 61.3879C325.053 56.1028 324.729 55.7776 313.713 56.428C305.613 56.8346 304.074 56.7533 302.778 55.615C301.968 54.8019 301.32 53.9075 301.32 53.5009C301.32 53.1757 306.423 52.8505 312.66 52.8505H324V50.5738C324 44.1505 320.274 38.215 314.685 35.6944C310.473 33.743 303.507 33.743 299.295 35.6944ZM309.744 43.9066C310.878 44.3131 311.85 45.2075 311.85 45.9393C311.85 46.915 310.797 47.1589 306.585 47.1589C301.563 47.1589 301.32 47.0776 302.13 45.614C303.426 43.0935 306.099 42.5243 309.744 43.9066Z" fill="white"/>
</svg>
