<svg width="56" height="45" viewBox="0 0 56 45" fill="none" xmlns="http://www.w3.org/2000/svg">
<path d="M1.56641 22.5V43.4348H28H54.4335V22.5V1.56522H28H1.56641V22.5ZM51.3007 22.5V40.3043H28H4.69927V22.5V4.69566H28H51.3007V22.5Z" fill="#83B271"/>
<path d="M27.9586 9.37643C25.5186 10.5156 22.8424 13.0296 21.7011 15.2687C21.0714 16.4865 21.032 16.4865 19.8514 15.8972C18.1984 15.033 15.1287 14.7188 13.4758 15.2687C10.6028 16.2115 8.51699 19.9433 9.10732 23.0858C9.50087 25.1678 11.8228 27.3675 13.9087 27.7211C15.4436 27.9568 15.5616 28.0746 15.5616 29.2924C15.5616 33.0634 18.041 35.1454 24.5347 36.7166C26.8173 37.2666 27.4863 37.3059 27.9586 36.913C28.7457 36.2453 28.7064 35.3418 27.8012 34.399C27.3683 33.9276 26.5812 32.3956 26.0302 30.9029L25.0463 28.271H29.0606C32.2484 28.271 33.9406 28.5067 37.4039 29.4102C42.9137 30.9029 45.5112 31.2564 46.6131 30.6672C47.7938 29.9994 47.6364 28.9781 46.0228 26.8962L44.6453 25.0499L45.3144 23.0858C46.1408 20.5718 45.8654 18.4113 44.3305 15.3866C42.9137 12.5583 39.844 9.72997 37.3252 8.86576C34.3342 7.84443 30.7528 8.04084 27.9586 9.37643ZM37.0104 12.1262C37.8762 12.519 39.1749 13.501 39.8833 14.3259C41.3001 15.8972 42.5989 18.2934 42.2447 18.647C42.1266 18.7648 40.0407 18.6862 37.6007 18.4505C33.429 18.0184 27.447 18.3327 24.3773 19.0791C23.1966 19.3933 23.1966 19.2755 24.3773 16.9186C25.4399 14.8759 27.6044 12.7547 29.4935 11.9298C31.2645 11.1834 35.1213 11.262 37.0104 12.1262ZM18.3165 18.6862C19.6939 19.2362 19.8907 19.4719 19.8907 20.6111C19.8907 22.8108 20.5598 23.0072 25.125 22.143C29.336 21.3967 35.9084 21.2003 39.6078 21.7109L41.8117 22.0252L41.7724 24.6964L41.733 27.3675L37.4039 26.2284C35.0426 25.5999 32.5632 24.8142 31.9729 24.5C30.8316 23.8715 28.9425 24.0286 28.9425 24.7357C28.9425 24.9713 27.8012 25.1285 26.3844 25.1285C24.3773 25.1285 23.6689 25.2856 23.0392 25.9141C21.8585 27.0926 21.7404 28.3103 22.6456 30.5887C23.0785 31.7671 23.3934 32.7884 23.2753 32.867C22.9211 33.2205 20.4023 32.1599 19.5759 31.2957C18.1984 29.8423 18.2378 27.289 19.6546 26.9354C20.7172 26.6605 21.1895 25.757 20.8746 24.6964C20.5204 23.675 19.4185 23.4786 17.8049 24.1464C15.6797 25.0106 14.1055 24.8928 13.0035 23.7536C11.8622 22.6537 11.7835 21.6324 12.61 20.0218C13.6726 17.9792 15.4436 17.5471 18.3165 18.6862Z" fill="#83B271"/>
<path d="M14.0536 19.7646C12.9866 21.0246 14.5872 22.9541 16.0236 22.0878C17.4189 21.2215 16.9264 19.1739 15.2848 19.1739C14.8744 19.1739 14.3409 19.4496 14.0536 19.7646Z" fill="#83B271"/>
</svg>
