<svg width="40" height="32" viewBox="0 0 40 32" fill="none" xmlns="http://www.w3.org/2000/svg">
<path d="M1.1189 16V30.8869H20H38.8811V16V1.11304H20H1.1189V16ZM36.6434 16V28.6609H20H3.35666V16V3.33912H20H36.6434V16Z" fill="white"/>
<path d="M19.9705 6.66767C18.2276 7.47775 16.316 9.26551 15.5008 10.8577C15.051 11.7237 15.0229 11.7237 14.1796 11.3047C12.9989 10.6901 10.8063 10.4667 9.62561 10.8577C7.5735 11.5282 6.08361 14.1819 6.50528 16.4166C6.78639 17.8971 8.44494 19.4614 9.93483 19.7128C11.0312 19.8804 11.1155 19.9642 11.1155 20.8301C11.1155 23.5118 12.8865 24.9922 17.5248 26.1096C19.1553 26.5007 19.6332 26.5286 19.9705 26.2493C20.5327 25.7744 20.5046 25.1319 19.858 24.4615C19.5488 24.1263 18.9866 23.0369 18.593 21.9754L17.8903 20.1038H20.7576C23.0346 20.1038 24.2434 20.2714 26.7171 20.9139C30.6527 21.9754 32.508 22.2268 33.2951 21.8078C34.1385 21.3329 34.026 20.6066 32.8735 19.1261L31.8896 17.8133L32.3675 16.4166C32.9578 14.6288 32.761 13.0924 31.6647 10.9415C30.6527 8.93031 28.46 6.91908 26.6609 6.30453C24.5245 5.57825 21.9664 5.71792 19.9705 6.66767ZM26.436 8.62304C27.0545 8.90238 27.9821 9.60072 28.4881 10.1873C29.5001 11.3047 30.4278 13.0086 30.1748 13.26C30.0905 13.3439 28.6006 13.288 26.8577 13.1204C23.8779 12.8131 19.605 13.0366 17.4124 13.5673C16.569 13.7908 16.569 13.707 17.4124 12.031C18.1714 10.5784 19.7175 9.06998 21.0668 8.48337C22.3318 7.95263 25.0867 8.00849 26.436 8.62304ZM13.0833 13.288C14.0672 13.6791 14.2077 13.8467 14.2077 14.6567C14.2077 16.221 14.6856 16.3607 17.9465 15.7462C20.9544 15.2154 25.6489 15.0757 28.2914 15.4389L29.8656 15.6624L29.8375 17.5619L29.8094 19.4614L26.7171 18.6513C25.0305 18.2043 23.2595 17.6457 22.8378 17.4222C22.0226 16.9752 20.6733 17.087 20.6733 17.5898C20.6733 17.7574 19.858 17.8691 18.846 17.8691C17.4124 17.8691 16.9064 17.9809 16.4566 18.4278C15.6133 19.2658 15.5289 20.1318 16.1755 21.7519C16.4847 22.5899 16.7096 23.3162 16.6253 23.3721C16.3723 23.6235 14.5732 22.8693 13.9828 22.2547C12.9989 21.2212 13.027 19.4055 14.039 19.1541C14.798 18.9585 15.1354 18.3161 14.9105 17.5619C14.6575 16.8356 13.8704 16.6959 12.7178 17.1708C11.1998 17.7853 10.0754 17.7015 9.28828 16.8914C8.47305 16.1093 8.41683 15.383 9.00717 14.2377C9.76616 12.7852 11.0312 12.4779 13.0833 13.288Z" fill="white"/>
<path d="M10.0384 14.0548C9.27626 14.9508 10.4195 16.3229 11.4455 15.7069C12.4422 15.0909 12.0904 13.6348 10.9179 13.6348C10.6247 13.6348 10.2436 13.8308 10.0384 14.0548Z" fill="white"/>
</svg>
